<svg xmlns="http://www.w3.org/2000/svg" style="display:none"><defs><style>.cls-1{fill:#fff}.cls-2{clip-path:url(#clip-path)}.cls-3{fill:#131212;fill-rule:evenodd}</style><clipPath id="clip-path"><path id="Rectangle_16" data-name="Rectangle 16" class="cls-1" transform="translate(613 582)" d="M0 0h213v124H0z"/></clipPath><style>.cls-1{opacity:.4}</style><style>.cls-1{opacity:.4}</style></defs><symbol id="affinage-logo" viewBox="0 0 213 124"><g id="Mask_Group_1" data-name="Mask Group 1" class="cls-2" transform="translate(-613 -582)"><path id="path30" class="cls-3" d="M12.638-1458v-1.042c.13-1.563.13-.782.391-.13 1.173 4.821 5.081 8.078 10.293 7.427-3.257-1.563-4.951-4.821-7.818-7.166a12.823 12.823 0 0 1-2.736-2.606c-.391-.912.391-2.736.651-3.779a3.606 3.606 0 0 1 .13-1.172c.261-1.954.261-.782.261.13.782 5.082 4.169 8.469 9.511 8.469-3.388-1.824-5.993-6.515-8.469-9.642-1.3-1.563.391-8.99.521-5.342.391 4.169 3.388 8.469 7.818 8.729.651 0-1.564-2.476-2.345-4.039-1.564-3.258-5.6-6.124-4.3-9.772.521-1.563 1.433-4.56 1.3-2.866-.261 4.43 1.173 8.729 5.212 10.293.651.261 2.736 1.172 1.694.13-1.824-1.824-2.215-4.169-3.127-6.384-1.042-2.085-3.518-4.561-2.736-6.645a18.278 18.278 0 0 1 1.954-3.909c.391-.912-.261 2.476-.13 3.648a9.183 9.183 0 0 0 4.169 6.775c.391.26 3 1.563 2.215.651-1.694-1.824-1.954-4.039-2.606-6.384-.651-1.694-1.564-3.258-2.215-5.082-.13-.26-.651-1.042-.521-1.173.13-1.042 1.3-2.215 1.824-3a2.717 2.717 0 0 1 .521-.781c1.433-2.345.261.521.13 1.824a9.066 9.066 0 0 0 .651 4.169 7.738 7.738 0 0 0 3 4.039c.651.391 2.476 1.694 1.694.521-1.694-2.345-1.564-6.124-2.606-8.99-.13-.652-1.433-3-1.173-3.908a14.307 14.307 0 0 1 3.779-4.691c.261-.261-.261.391-.261.782a7.781 7.781 0 0 0-.782 1.433 10.3 10.3 0 0 0 1.433 8.338c.651.782 3.257 2.737 2.866 2.085a4.568 4.568 0 0 1-.782-1.824c-.651-2.867-.521-6.123-1.042-8.729-.391-1.563-1.042-2.606.13-3.779 1.042-1.172 4.691-4.951 2.736-1.824a7.98 7.98 0 0 0-.782 6.254 8.6 8.6 0 0 0 1.564 3.518c.391.391 2.085 1.954 2.085 1.563a78.913 78.913 0 0 1-.521-8.078c-.261-1.563-1.173-5.211 0-6.254a30.427 30.427 0 0 1 4.039-3.127c.261-.131-.261.391-.521.651a3 3 0 0 1-.651.913 6.876 6.876 0 0 0-1.042 3.257 8.523 8.523 0 0 0 2.736 8.078c.521.391-.13-1.563-.13-2.736.13-1.434.521-2.476.651-3.909.13-2.084-.261-4.561.13-6.645.13-1.172 1.954-1.824 2.606-2.215a7.737 7.737 0 0 1 2.606-1.563c.391-.26-.391.521-.782.913a8.626 8.626 0 0 0-1.954 2.866 10.167 10.167 0 0 0 .13 7.818c.13.26 1.694 2.736 1.564 1.563-.651-3.778 1.173-7.556 1.694-11.335.13-.521.13-2.084.521-2.476a25.688 25.688 0 0 1 3.257-1.563c3.257-1.563-1.433 2.085-2.085 5.472a9.928 9.928 0 0 0 .391 4.43c.13.391 1.3 2.346 1.433 2.085.261-1.042 0-2.215.261-3.258 1.042-3 1.954-6.124 3-9.381.521-2.084 3.909-1.564 5.6-2.736-3.257 2.606-5.733 6.124-4.3 10.684 0 .391.912 2.736.912 1.694 0-3.258 2.345-5.473 3.257-8.339.651-1.825.782-4.169 2.606-4.951a35.7 35.7 0 0 1 4.43-1.3c.261 0 .391.13 0 .521a7.394 7.394 0 0 0-.912.521 9.65 9.65 0 0 0-4.169 5.212 6.924 6.924 0 0 0-.391 4.3c.13.521.521 2.345.782 1.955a10.388 10.388 0 0 0 .391-1.955c.782-1.824 2.476-3.388 3.257-5.081a15.348 15.348 0 0 0 1.042-2.085c.912-2.084 1.694-3.387 4.56-3.778 1.042-.13 2.215-1.042 3-.391.261.261-.261.261-.651.261a9.709 9.709 0 0 0-1.564.912 7.846 7.846 0 0 0-3.257 3.258 9.082 9.082 0 0 0-1.3 4.951c0 .651.391 2.475.651 2.215.651-.782.651-2.084 1.3-3 2.085-2.605 3.909-5.211 5.733-7.817.782-1.172 3-1.172 4.951-1.042.651 0 1.3.131 1.694.131a14.585 14.585 0 0 0-1.694.651c-3 1.173-5.342 3-6.254 6.515-.13.521-.651 3.518 0 3.909.391.261.261-.782.391-1.042a11.662 11.662 0 0 1 1.954-2.476c1.433-1.433 2.606-2.736 3.909-4.169.651-.782 1.433-1.824 2.215-2.605 1.042-1.042 3.257-.782 5.212-.391.391 0 1.042.13 1.3.13-.391.13-.912.261-1.3.391a10.358 10.358 0 0 0-5.733 3.519 8.637 8.637 0 0 0-1.695 4.041v1.694c0 .391.13.521.391 0 .912-2.085 3-3 4.56-4.3.782-.651 1.564-1.693 2.476-2.606 1.173-1.3 2.606-2.606 4.039-2.345.391 0 .651.13 1.042.13a37.3 37.3 0 0 1 3.648.913 16.416 16.416 0 0 0-3.648.521 8.344 8.344 0 0 0-4.039 2.475 9.947 9.947 0 0 0-1.042 1.434 6.2 6.2 0 0 0-1.042 2.345c-.261.652-.651 2.867.13 1.694a6.526 6.526 0 0 1 .912-1.042c1.3-1.3 3.257-1.954 4.821-3.257.13 0 .13 0 .261-.13 1.694-1.433 3.909-4.039 5.863-3.518 1.564.391 3 1.042 4.56 1.563a9.235 9.235 0 0 0-9.381 4.43 7.362 7.362 0 0 0-1.042 2.084c-.261.651-.521 1.433-.261 1.564.13.13.13.13.261-.131.13 0 .261-.521.391-.651.391-.391.782-.651 1.173-1.043 1.564-.912 3.257-1.563 4.821-2.475 1.563-.782 4.169-3.387 5.733-3.257 1.824.261 3.648 1.563 5.212 2.345-3.909-.782-7.818.13-10.163 3.127-.391.521-2.085 3-1.564 3.648.13.26.391-.391.651-.652a4.676 4.676 0 0 1 1.3-.912c1.433-.782 3.388-1.173 4.951-1.825 1.694-.781 4.3-2.866 6.124-2.736 1.694.261 3.648 1.955 4.951 2.736-3.779-.781-7.557-.651-10.293 2.346-.391.391-2.215 2.867-1.954 3.388.13.261.521-.391.782-.521.391-.261.912-.652 1.3-.913 1.694-.652 3.648-.652 5.212-1.3 1.954-.522 4.3-1.955 6.124-2.085 1.3-.13 3.909 2.736 4.951 3.519-4.56-1.564-10.163-1.564-12.638 3.257-.261.391 3.518-.521 5.863-.783 3.648-.391 6.645-2.605 9.511-.129a24.684 24.684 0 0 0 2.736 2.476c-3.388-1.694-7.3-2.346-10.684-.131-.782.521-3.257 3.127-2.085 2.606 1.954-1.042 4.039-.521 6.254-.651 3.257-.261 6.515-1.824 8.73.651.782.913 1.694 1.955 2.476 2.867-3.127-1.824-6.775-3-10.423-1.173-.782.521-3.518 2.867-2.215 2.476 2.345-.782 4.691 0 7.166 0 5.733.13 6.906-.391 9.9 4.821-2.866-2.215-6.515-4.3-10.423-2.605-.521.13-3.257 1.563-3.257 2.215 0 .261.651-.261.912-.261a6.275 6.275 0 0 1 1.564 0 24.229 24.229 0 0 1 5.342 1.042c1.954.26 5.6-.261 6.775 1.3a21.917 21.917 0 0 1 2.606 4.43c-2.606-2.605-5.863-4.69-10.033-3.518-.651.261-3.257 1.173-3.388 1.955-.13.261.521-.13.912-.13a3.206 3.206 0 0 1 1.563.13 34.471 34.471 0 0 1 5.212 1.563c1.694.392 5.472.392 6.515 1.824a18.759 18.759 0 0 1 1.954 4.691c-2.606-2.606-4.951-4.952-9.251-4.169-.651 0-3.518.651-3.648 1.433 0 .26.651 0 .912 0 .521 0 1.042.13 1.564.13 1.824.521 3.257 1.694 4.951 2.215 1.694.652 5.212.782 6.124 2.345.912 1.434 1.173 3.519 1.564 5.212-2.866-4.561-7.166-6.905-12.638-4.561 3 .261 4.691 1.955 7.166 3.258 1.564.912 5.081 1.563 5.993 3 .782 1.3.651 3.779.912 5.342-2.085-4.821-6.775-7.427-12.117-5.6 2.866.521 4.43 2.346 6.775 3.909 1.433.912 4.821 1.955 5.6 3.388s.261 4.3.391 5.863c-1.824-5.081-5.472-8.469-11.466-7.3 2.736.913 4.039 2.867 6.384 4.561 1.433 1.3 4.3 2.476 5.212 4.169.651 1.043-.261 4.3-.261 5.6-1.3-5.342-4.691-8.469-10.684-8.078 2.606 1.172 3.778 3.127 5.863 5.212 1.433 1.563 3.518 2.736 4.691 4.429.261.391-.13.913-.261 1.3-.13 1.563-.391 3-.651 4.56-.521-5.472-3.778-9.511-9.511-9.511 3 1.825 4.3 5.342 6.906 8.078 1.3 1.3 2.345 2.085 2.085 3.909-.13 1.434-.782 3-1.042 4.561-.651-5.733-2.866-9.512-8.86-10.293 3.388 2.606 5.212 7.035 7.557 10.423 1.3 2.085-.391 4.691-1.3 6.906.391-5.733-1.694-10.294-7.427-11.466 3.127 2.736 4.43 7.687 6.254 11.205 1.173 2.214-.782 4.56-1.954 6.515.782-5.6-.912-10.033-6.254-11.857 2.476 3.258 3.518 8.079 4.951 11.857.782 2.215-1.3 4.3-2.736 6.124 1.433-5.473.521-9.9-4.691-12.638 1.564 2.345 1.433 4.951 2.085 7.687.391 1.825 2.215 4.951 1.3 6.645a14.759 14.759 0 0 1-3.127 3.909c1.824-5.212 1.433-9.642-3.518-12.638 1.824 3.127 1.824 8.729 2.345 12.508.261 2.345-2.215 3.779-3.779 5.212 1.954-4.821 2.345-9.381-2.345-12.9 1.173 3.388.651 8.47 1.042 12.248.13 2.867-2.606 3.909-4.56 5.472 3-4.3 3.648-9.511-.521-13.42.651 2.736-.13 5.081-.521 7.817-.13 1.824.521 4.951-.261 6.515-.782 1.3-3.518 2.215-4.821 3 3.388-4.17 4.43-8.86.912-13.29.391 3-.651 5.082-1.3 7.687-.391 2.085-.261 4.3-.912 6.384-.13.391-.651.261-1.042.521-1.433.652-2.866 1.3-4.169 1.955 3.779-3.779 5.472-8.339 2.085-13.16.391 4.3-2.085 8.6-3.127 12.508-.651 2.605-3.909 2.214-6.124 3.387 4.56-3.127 6.775-7.687 4.039-13.029 0 3.127-1.954 5.082-3 7.688-.521 1.433-1.042 2.866-1.694 4.3-.912 2.215-3.909 2.345-6.124 2.736 4.43-2.867 7.036-6.775 5.081-12.378-.651 3.778-3.778 7.557-5.6 10.814-.13.261-.13.391-.261.652-.912 1.564-2.866 1.694-4.821 1.824-.651 0-1.173.13-1.564.13a17.442 17.442 0 0 1 1.564-.782 9.331 9.331 0 0 0 4.56-11.075c-.912 2.736-2.866 4.951-4.56 7.3a8.376 8.376 0 0 0-1.3 1.694c-.651 1.3-1.173 2.606-2.606 2.867a31.927 31.927 0 0 1-3.518.26 6.363 6.363 0 0 1-1.564-.13 7.968 7.968 0 0 0 1.567-.657c4.169-1.694 6.775-4.951 6.124-10.293-1.3 2.605-3 3.778-5.081 5.993-.391.391-.651.912-1.042 1.3-1.954 2.345-2.476 3.778-6.906 3.388-.651 0-1.173-.26-1.824-.26 5.212-.913 8.73-4.561 8.469-10.163-1.042 2.345-3 3.257-4.951 4.951-1.694 1.694-3.909 5.212-6.384 4.821-.651-.13-1.3-.26-1.824-.391a15.232 15.232 0 0 1-2.606-.652 17.842 17.842 0 0 0 2.606-.391c4.039-1.042 6.906-3.647 7.3-8.6-1.694 2.345-4.039 3.257-6.254 4.691a7.414 7.414 0 0 1-1.042.911c-1.433 1.3-3.127 3.128-4.43 3a15.891 15.891 0 0 1-4.951-1.693c4.3 0 7.687-1.563 9.381-4.82a10.728 10.728 0 0 0 .912-3.257c-.261.391-.651.651-.912 1.042-2.476 2.084-5.342 2.867-7.948 4.821-.912.651-2.345 1.693-3.388 1.563a11.028 11.028 0 0 1-3.648-1.563 1.376 1.376 0 0 1-.651-.261c-1.173-.521-.521-.261.13-.261 5.212.652 9.511-2.084 10.814-6.905-2.606 2.606-6.515 3-9.642 4.561-.912.521-2.476 1.563-3.518 1.563a11.369 11.369 0 0 1-3.127-1.954c-.391 0-.521-.261-.782-.261-1.042-.651-.782-.651-.261-.391 5.081 1.172 9.772-1.173 11.466-5.733-3 2.085-6.906 2.215-10.033 3.518-.912.391-2.345 1.3-3.388 1.172-.912-.13-2.215-1.563-3.127-2.214-.261-.261-.521-.391-.782-.651-1.564-1.173-.651-.651.13-.261a9.291 9.291 0 0 0 11.987-4.561c-2.476 1.694-5.212 1.3-8.078 1.955a46.584 46.584 0 0 0-4.56 1.173c-1.954.391-7.3-4.691-4.43-3.127 4.43 2.346 9.121.261 11.857-3.387-3.257 1.433-8.6 1.172-12.248 1.563-1.433.26-1.564.26-2.606-.652a31.135 31.135 0 0 1-2.866-3c-.261-.391-.391-.651 0-.391 4.691 2.736 9.381 2.605 13.029-1.694-3.648 1.172-8.339.391-12.378.391-2.476.13-4.169-2.476-5.081-4.56-.261-.521.13.129.391.129 4.169 3.388 8.99 3.779 13.029.131-3.648.521-6.775-.782-10.554-1.173-1.433 0-3.127 0-4.039-.912-.13-.261-3.909-5.863-1.824-3.909 3.648 3.518 8.6 4.039 12.638 1.042-3.648.521-6.906-1.563-10.423-2.215-1.3-.13-3-.261-3.648-1.3-.391-.391-2.866-5.863-1.694-4.169a9.562 9.562 0 0 0 12.638 2.346c-3.909 0-6.645-2.346-10.163-3.257-1.173-.261-3-.521-3.518-1.434-.521-.651-2.866-7.166-1.042-4.56 2.736 4.169 7.3 6.124 12.117 3.909-3.778-.652-6.384-3-9.642-4.43-1.042-.391-3-1.043-3.518-1.955-.521-1.042-.521-2.736-.782-3.779v-.912c-.261-1.3 0-.521.13 0 2.345 4.69 6.775 6.514 11.857 5.081-3.518-.912-6.124-3.778-9.251-5.342-.912-.391-2.736-1.173-3.127-2.085-.521-1.042-.261-2.736-.391-3.909v-.912c-.13-1.563.13-.651.391.13 1.824 4.56 5.6 7.3 11.075 6.124-3.518-1.173-5.733-4.17-8.6-6.254a10.867 10.867 0 0 1-3-2.475c-.519-.91.002-2.604.132-3.65zm-.521-1.173c-.13 1.3.13 3.909-.651 4.951-1.564 2.215-3.648 4.17-5.081 6.384-1.694 1.955-2.345 4.43-4.56 5.863-1.3.912 2.866.13 3.779-.391a13.879 13.879 0 0 0 4.951-4.56 5.9 5.9 0 0 0 1.042-2.867c.13-.391.13-.782.261-1.3 0-.13 0-.782.13-.651.391.26.13 3.518.13 4.169.261.651-.912 2.215-1.433 2.867-1.694 2.605-3.388 4.69-4.43 7.426a9.434 9.434 0 0 1-1.564 3c-.391.261-1.564 1.042-1.694 1.434s.651-.13 1.042-.13a10.516 10.516 0 0 0 7.427-5.6 12.555 12.555 0 0 0 1.3-3.908v-1.173c0-.391-.261-1.173-.13-.912.13.912 1.173 3.518.782 4.43a15.988 15.988 0 0 1-1.564 3.388 42.168 42.168 0 0 0-3.518 7.818 7.135 7.135 0 0 1-2.215 3.648c-.521.651 2.476-.521 3.257-.912 2.736-1.693 5.081-5.342 4.951-8.469 0-.391-.391-2.084-.13-2.476s.261.912.391 1.433a9.774 9.774 0 0 0 .651 2.085c.521 1.563-1.042 3.909-1.694 5.342-1.433 3.647-1.824 7.557-4.039 10.814a14.4 14.4 0 0 0 3.127-1.3 11.149 11.149 0 0 0 4.43-8.339c0-.913-.651-2.085-.391-2.867 0-.391.13.521.261.912a7.986 7.986 0 0 0 .651 1.564c.782 1.563.13 3-.261 4.821-.912 3.127-.912 7.556-2.085 10.684-.261.781-1.824 2.606-.651 2.084a10.733 10.733 0 0 0 5.342-12.378c-.912-2.736 1.824 2.346 1.694 3.779-.391 2.606-1.042 5.081-1.3 7.817 0 2.606.261 4.821-.782 7.167-.782 1.563.782 0 1.173-.391a10.366 10.366 0 0 0 3.779-7.426 9.193 9.193 0 0 0-.521-3.909c-.13-.652-1.042-2.215-.521-1.563a17.812 17.812 0 0 1 2.347 3.115c.391.391 0 1.824 0 2.346-.13 3.648.261 7.557 0 11.075a8.441 8.441 0 0 1-.261 2.606c-.13.26-.651.912-.391.782 2.866-.261 4.3-6.124 4.43-8.208s-1.824-6.124-1.173-5.472c3.648 3.388 1.954 9.25 3.388 13.681a8.466 8.466 0 0 1 .521 4.04c0 .521-.521 2.214-.13 1.693.261-.391.651-.651.912-1.042 2.736-3 2.736-8.469.912-11.857a2.835 2.835 0 0 0-.651-1.042c-.261-.26-.912-1.042-.651-.782a7.107 7.107 0 0 1 3.518 4.56c.651 2.606.912 5.342 1.564 7.688.521 1.693 1.3 3.127 1.433 4.821 0 .521-.391 2.345-.13 2.606.13.391.391-.651.651-.912a3.077 3.077 0 0 0 .782-1.173 11.426 11.426 0 0 0 .651-8.078 8.317 8.317 0 0 0-2.085-3.778c-.391-.391-1.433-1.173-.912-1.042 2.215.13 4.039 3.518 4.56 5.342.651 2.215 1.173 4.56 1.954 6.775.782 1.955 1.824 3.388 1.824 5.864 0 2.084 1.824-2.346 1.954-3.648a11.392 11.392 0 0 0-1.3-6.906c-.521-.912-3.518-3.518-2.215-2.867 2.085 1.042 3 1.564 3.909 3.519 1.564 3.648 3.778 7.166 5.212 10.813a6.555 6.555 0 0 1 .651 1.694c0 .391 0 1.694.261 1.563 3.127-3 .261-10.033-1.564-12.248a7.973 7.973 0 0 0-2.215-1.954.128.128 0 0 1-.13-.131c1.954.913 3.518 1.3 4.691 3.258 1.824 3.126 3.388 5.993 5.472 8.99a9.444 9.444 0 0 1 1.564 3c.13.391 0 1.433.261 1.3.912-.912 1.042-3.648.912-4.951-.261-2.475-1.564-5.6-3.518-7.166a20.779 20.779 0 0 1-2.866-1.694c0-.13.391 0 .521.13a4.139 4.139 0 0 1 1.173.391c2.085.781 2.606.781 3.909 2.605a54.7 54.7 0 0 0 3.388 4.3c1.3 1.563 2.606 3.126 3.778 4.69.521.782 1.564 3 1.564 2.736a10.933 10.933 0 0 0-5.212-11.987h-.13a4.018 4.018 0 0 0-1.3-.651c-.13-.131-.391-.131-.651-.261.782.13 1.3.261 1.954.391 3.388.912 4.3 3.257 7.3 6.124 2.345 2.345 4.691 4.039 6.124 6.775 0 .13.13.261.261.391a9.026 9.026 0 0 0-.274-4.949 11.765 11.765 0 0 0-3.257-4.952 8.182 8.182 0 0 0-2.345-1.563c-.912-.391-3-1.042-1.954-.782 1.433.13 3.127-.13 4.3.651a17.424 17.424 0 0 1 3.257 3 20.2 20.2 0 0 0 1.694 1.563c1.694 1.433 3.648 2.345 5.212 3.908.261 0 .261.131.521.391.651.912 1.694 2.345 1.694 1.824a8.441 8.441 0 0 0-.261-2.606 9.859 9.859 0 0 0-1.433-3.388 11.289 11.289 0 0 0-6.906-4.69c-.13-.13-.391-.13-.521-.26-.521 0-.391-.131 0-.131.912-.13 3.909.131 4.56.651.912.652 1.954 1.434 2.866 2.085a36.961 36.961 0 0 0 3.648 2.605 13.734 13.734 0 0 0 1.433.913 12.982 12.982 0 0 1 4.43 3.257c1.042 1.433.261-.782.261-1.563-.261-2.867-2.215-4.821-4.691-6.254a14.917 14.917 0 0 0-5.081-1.824c-.261 0-.261-.13-.521-.13h.521a10.514 10.514 0 0 1 5.081.651c2.736 1.042 4.951 2.867 8.208 4.039a11.979 11.979 0 0 1 3.648 1.825c.261.26 1.433 1.433 1.564 1.3.13-.261-.261-1.042-.261-1.3-1.694-5.212-6.124-7.558-11.726-7.558 1.694-.521 3.518-1.3 5.212-.651 3 1.3 5.863 3 9.121 3.779a10.288 10.288 0 0 1 3.778 1.433c.391.26 1.564 1.433 1.694 1.172a4.968 4.968 0 0 0-.391-1.3c-1.824-4.951-7.036-6.775-12.248-6.384 1.564-.651 3.388-1.694 5.081-1.173 3.127 1.042 5.993 2.345 9.381 2.866a11.573 11.573 0 0 1 3.779 1.042 17.312 17.312 0 0 0 1.824 1.042 2.314 2.314 0 0 0-.521-1.3c-2.345-4.821-7.557-6.124-12.769-5.212 1.173-.521 2.606-1.563 3.909-1.824 2.215-.391 5.472 1.173 7.818 1.564 2.606.521 5.342.13 7.557 1.042 1.694.782 1.694.521.521-.782a10.879 10.879 0 0 0-13.551-3.126c.912-.521 3-2.345 4.039-2.345 3.648 0 7.3 1.3 11.205.651 2.085-.26 6.384 1.433 5.081-.13-3.778-4.43-8.99-4.43-14.072-2.345 1.042-.782 2.085-1.433 3.127-2.345.521-.391.521-.912 1.173-.912 2.866-.391 6.124.13 8.99-.391 2.476-.391 4.951-1.042 7.427-.391 1.173.391.521 0 0-.651-3.909-4.43-10.814-3-14.984 0 .912-.912 1.824-1.564 2.606-2.476.261-.391.912-1.3.912-.782 0-.782 1.433-.651 2.085-.782 1.433-.13 2.736-.26 4.3-.39 3-.391 5.6-1.694 8.6-1.694.651-.13 2.345.13 2.345 0-.521-1.563-4.3-2.606-5.733-2.866-4.3-.391-6.775 1.3-9.642 3.518.912-1.172 1.824-3 2.866-3.778 1.564-1.042 4.43-1.173 6.254-1.694 2.866-.651 5.472-2.215 8.469-2.736a3.629 3.629 0 0 1 1.3-.13c.261 0 1.042.26.912 0-.651-1.433-4.56-2.215-6.124-2.085-4.56.13-6.906 2.215-9.772 5.342a43.324 43.324 0 0 1 3-4.821c1.824-1.693 5.733-1.955 8.078-2.866 2.866-1.3 4.821-3.257 8.339-3.257-5.472-3.257-11.335-.912-14.984 3.909.651-1.3 1.173-3.257 2.085-4.3 1.564-1.955 5.472-2.476 7.687-3.779 2.736-1.563 4.43-3.388 7.818-3.778a10.958 10.958 0 0 0-14.463 4.951 22.873 22.873 0 0 1 1.564-4.169c.912-1.3 3.388-2.346 4.691-3.127 3.388-1.955 5.993-5.473 10.033-6.385-6.254-2.084-11.726 1.564-13.941 7.036.391-1.433.521-3.388 1.3-4.821 1.173-2.084 4.691-3.387 6.515-5.211 2.345-2.215 3.909-4.3 6.775-5.342-4.691-1.3-8.99 1.043-11.6 4.821a22.461 22.461 0 0 0-1.3 3.126c.13-1.433.391-3 .651-4.429.261-1.825 4.3-4.3 5.472-5.6 2.345-2.606 3.648-5.211 6.775-6.906-6.645-.651-11.205 3.909-12.117 10.033.13-1.564.261-3 .261-4.691 0-2.084 3.518-4.56 4.821-6.253 1.954-2.736 3-5.472 5.993-7.427a10.847 10.847 0 0 0-10.423 7.3c-.391 1.042-.261 2.345-.651 3.387 0-1.433-.651-4.039.13-5.211 1.173-2.085 2.606-3.909 3.779-5.864 1.694-2.866 2.345-5.862 5.081-8.208-6.384.782-9.642 5.863-9.642 12.378-.13-1.563-1.042-4.17-.521-5.6.782-2.084 2.085-4.039 3.127-6.254 1.564-3 1.694-6.124 4.43-8.469a10.939 10.939 0 0 0-8.73 9.25 28.343 28.343 0 0 0 .13 3.388c-.391-1.3-.782-2.736-1.173-4.039-.13-2.346 1.694-5.212 2.476-7.427 1.173-3.257 1.173-6.385 3.257-9.251-5.733 2.215-8.469 8.079-6.645 14.2-.651-1.825-2.215-3.909-1.694-5.864 1.042-4.43 1.564-11.465 3.909-15.5a10.859 10.859 0 0 0-5.733 13.42c.651 1.955-.521-.781-.912-1.433-1.042-1.955-.912-3.257-.521-5.472.782-4.169.261-9.642 1.954-13.29-5.081 3.257-6.124 8.73-4.169 14.333-.782-1.042-1.564-2.215-2.345-3.257h.13c-.651-.391-.261-3.257-.261-4.17.261-4.43-1.042-9.381.391-13.29-4.691 3.909-5.472 10.033-2.085 15.244-.912-1.042-2.476-2.215-3.127-3.518-1.042-2.085-.391-5.994-.651-8.469-.391-3-1.433-5.472-.782-8.729-4.169 3.778-4.56 11.2-.391 15.244a16.324 16.324 0 0 1-3.518-3.127c-1.3-1.955-.912-5.863-1.564-8.208-.782-3-1.954-5.212-1.563-8.6-3.648 4.3-3.648 11.206.912 15.114-.782-.652-3.388-1.955-3.648-2.736-.912-2.215-1.3-4.821-2.215-7.167-1.3-3-3-5.472-3-9.25-3.779 5.081-1.564 11.6 3.127 15.244-1.173-.782-3.909-1.694-4.56-3-1.042-2.084-1.694-4.43-2.736-6.514-1.433-3.127-3.257-5.212-3.779-8.86a11.1 11.1 0 0 0 4.169 14.592c-1.3-.521-2.606-1.172-3.909-1.693-1.173 0-3.257-5.994-3.778-6.645-1.694-3-4.039-4.821-4.691-8.339-2.476 5.473.651 10.814 5.212 13.812-1.694-.651-3.518-.782-4.691-2.215-1.564-2.084-2.736-4.43-4.56-6.384-.13-.13-.261-.391-.521-.521-1.824-2.085-3.388-3.388-4.169-5.994a5.227 5.227 0 0 0-.391 1.955 6.315 6.315 0 0 0 0 2.215 11.51 11.51 0 0 0 5.081 7.687c.782.391 1.564.912 2.476 1.3a8.407 8.407 0 0 0-2.476-.521 10.215 10.215 0 0 0-1.824-.261c-.782 0-2.606-2.736-3.257-3.648-.13-.13-.261-.261-.261-.391-2.215-2.736-5.6-4.56-7.166-7.687a9.441 9.441 0 0 1-.651-1.172 10.121 10.121 0 0 0 .651 5.994 12.807 12.807 0 0 0 7.166 6.384c-3.779 0-5.212-1.173-7.166-3.127-.651-.651-1.433-1.433-2.215-2.345-2.606-2.215-5.472-3.127-7.166-6.254 0 6.254 3.518 9.9 9.381 11.335a16.665 16.665 0 0 0-2.476.13h-1.554c-1.042-.13-2.345-1.563-3-2.084-2.085-1.434-4.3-2.736-6.384-4.169a17.5 17.5 0 0 1-4.43-3.778 11.646 11.646 0 0 0 4.43 8.078 13.793 13.793 0 0 0 5.993 2.345 21.554 21.554 0 0 1-3.909.521 6.82 6.82 0 0 1-2.085-.782c-1.824-.912-3.778-2.606-5.342-3.388-2.736-1.433-5.212-1.954-7.557-4.3.651 5.995 5.863 8.86 11.857 8.991-1.433.391-2.736.781-4.039 1.042-1.564.391-5.472-2.476-6.906-3.128-3.127-1.433-6.124-1.433-8.86-3.908 1.433 4.039 3.909 6.775 8.339 7.948 1.173.391 2.345-.13 3.648.13 1.433 0-1.173.521-1.694.782-1.954.651-2.606.26-4.56-.391-4.039-1.172-9.9-1.694-13.55-4.039 1.824 3.648 4.56 6.254 9.121 6.775 1.433.13 2.606-.521 4.039-.521 1.564 0-1.3.782-1.824 1.042-1.694.913-2.476.652-4.43.261-4.039-.782-10.163-.782-13.811-2.736a9.891 9.891 0 0 0 7.3 5.472 9.621 9.621 0 0 0 5.081-.13 3.112 3.112 0 0 1 1.173-.391c.13 0 .651-.391.521-.13-.13.521-.782.521-1.3.782-3.257 1.954-5.6 1.042-9.772.782-3.518-.261-6.515.521-9.511-.912a10.392 10.392 0 0 0 7.948 4.821c2.215.26 7.3-1.955 5.6-.652-.912.652-1.824 1.824-3 1.954-2.215.261-4.691 0-7.036.261-3.518.26-6.384 1.173-9.642.26a11.144 11.144 0 0 0 14.2 2.085 4.151 4.151 0 0 1 .782-.652c.521-.13-.391.521-.521.521l-1.954 1.955c-1.173 1.3-4.039 1.172-5.733 1.3-4.169.521-7.818 2.476-11.857 1.564 3.127 3.257 8.99 4.3 12.9 1.693.912-.651 2.476-1.954 1.694-1.173-.391.391-2.345 3.388-2.345 2.867 0 .391-3 .781-3.518.913-4.3.912-8.339 3.387-13.029 3a10.321 10.321 0 0 0 8.99 2.085 8.873 8.873 0 0 0 4.3-2.085c.261-.26.912-.782 1.173-1.042-1.564 1.694-1.433 3-3.648 3.908-2.476 1.043-5.342 1.564-7.687 3-2.215 1.173-4.039 2.345-6.775 2.345a11.059 11.059 0 0 0 11.336-.13c1.042-.651 1.694-1.824 2.736-2.606 1.173-.912-.391 1.173-.651 1.825-.782 1.563-1.694 1.955-3.388 2.866-3.909 1.825-8.078 5.343-12.638 5.994a10.659 10.659 0 0 0 11.075-1.173c1.173-.782 1.564-1.955 2.606-2.867.912-.782-.391 1.3-.521 1.955-.651 1.824-1.564 2.215-3.127 3.257-3.648 2.215-7.687 6.384-11.987 7.687 4.3.912 7.818.391 11.075-2.606a26.172 26.172 0 0 0 2.215-3.517c1.042-1.173-.13 1.433-.261 2.084-.521 1.955-1.173 2.476-2.736 3.518-3.388 2.736-7.036 7.166-11.075 8.73a10.559 10.559 0 0 0 10.684-3.519c.912-1.042 1.173-2.345 1.824-3.387.912-1.3 0 1.3 0 1.954a6.409 6.409 0 0 1-2.345 3.909c-3.257 3.237-6.124 7.8-10.033 10.012a11.139 11.139 0 0 0 11.075-6.254 7.465 7.465 0 0 0 .521-1.824c.13-.521.391-1.955.391-1.3" transform="translate(640 2129)"/></g></symbol><symbol id="affinage" viewBox="0 0 22.802 23.213"><path d="M9.45 4.93l4.314 10.066H4.93L9.449 4.93zM22.8 22.391c-.411 0-.822-.205-1.233-.205a4.491 4.491 0 0 1-1.027-.616 4.3 4.3 0 0 1-.822-1.232 11.463 11.463 0 0 1-1.027-1.643L11.091.001h-1.027L0 23.213h1.438l2.876-6.779h10.271l.822 2.26a7.105 7.105 0 0 0 1.438 2.465 5.538 5.538 0 0 0 1.643 1.438 14.141 14.141 0 0 0 1.643.616h2.67v-.822"/></symbol><symbol id="btn_next" viewBox="0 0 20 36"><path id="Shape_20114_20copy_203" data-name="Shape%20114%20copy%203" class="cls-1" d="M20 18.084L2.794 36 0 33.07 14.473 18 0 2.93 2.794 0 20 17.917l-.08.083z"/></symbol><symbol id="btn_prev" viewBox="0 0 20 36"><path id="Shape_20114_20copy_203" data-name="Shape%20114%20copy%203" class="cls-1" d="M20 18.084L2.794 36 0 33.07 14.473 18 0 2.93 2.794 0 20 17.917l-.08.083z" transform="rotate(180 10 18)"/></symbol><symbol id="menu_btn-mobile" viewBox="0 0 20 14"><g data-name="Group 3"><path data-name="Rectangle 8" d="M0 0h20v2H0z"/><path data-name="Rectangle 9" d="M0 6h20v2H0z"/><path data-name="Rectangle 10" d="M0 12h20v2H0z"/></g></symbol><symbol id="menu_btn" viewBox="0 0 54 54"><g data-name="Group 2"><path class="cls-1" d="M4.265 25.989v-.352c.044-.528.044-.264.132-.044a3.1 3.1 0 0 0 3.474 2.506c-1.1-.528-1.671-1.627-2.638-2.418a4.328 4.328 0 0 1-.923-.88c-.132-.308.132-.923.22-1.275a1.217 1.217 0 0 1 .044-.4c.088-.66.088-.264.088.044a3.1 3.1 0 0 0 3.21 2.858c-1.143-.616-2.023-2.2-2.858-3.254-.44-.528.132-3.034.176-1.8a3.105 3.105 0 0 0 2.638 2.946c.22 0-.528-.835-.792-1.363-.528-1.1-1.891-2.067-1.451-3.3.176-.528.484-1.539.44-.967-.088 1.495.4 2.946 1.759 3.474.22.088.923.4.572.044a5.8 5.8 0 0 1-1.055-2.155c-.352-.7-1.187-1.539-.923-2.243a6.167 6.167 0 0 1 .66-1.319c.132-.308-.088.836-.044 1.231a3.1 3.1 0 0 0 1.407 2.287c.132.088 1.011.528.748.22a4.676 4.676 0 0 1-.879-2.155c-.22-.572-.528-1.1-.748-1.715-.044-.088-.22-.352-.176-.4.044-.352.44-.748.616-1.011a.918.918 0 0 1 .176-.264c.484-.792.088.176.044.616a3.06 3.06 0 0 0 .22 1.407 2.611 2.611 0 0 0 1.011 1.363c.22.132.836.572.572.176-.572-.791-.528-2.067-.879-3.034-.044-.22-.484-1.011-.4-1.319a4.828 4.828 0 0 1 1.275-1.583c.088-.088-.088.132-.088.264a2.627 2.627 0 0 0-.264.484 3.477 3.477 0 0 0 .484 2.814c.22.264 1.1.924.967.7a1.541 1.541 0 0 1-.264-.616c-.22-.968-.176-2.067-.352-2.946-.132-.528-.352-.88.044-1.275.352-.4 1.583-1.671.923-.616a2.693 2.693 0 0 0-.264 2.111 2.9 2.9 0 0 0 .528 1.187c.132.132.7.66.7.528a26.637 26.637 0 0 1-.176-2.726c-.088-.528-.4-1.759 0-2.111a10.282 10.282 0 0 1 1.363-1.055c.088-.044-.088.132-.176.22a1.013 1.013 0 0 1-.22.308 2.322 2.322 0 0 0-.352 1.1 2.876 2.876 0 0 0 .923 2.726c.176.132-.044-.528-.044-.923.044-.484.176-.835.22-1.319a19.092 19.092 0 0 1 .044-2.243c.044-.4.66-.615.879-.748a2.611 2.611 0 0 1 .879-.528c.132-.088-.132.176-.264.308a2.911 2.911 0 0 0-.66.967 3.432 3.432 0 0 0 .044 2.639c.044.088.572.923.528.528-.22-1.275.4-2.55.572-3.826.044-.176.044-.7.176-.835a8.664 8.664 0 0 1 1.1-.528c1.1-.528-.484.7-.7 1.847a3.351 3.351 0 0 0 .132 1.5c.044.132.44.792.484.7.088-.352 0-.748.088-1.1.352-1.011.66-2.067 1.011-3.166.176-.7 1.319-.528 1.891-.923-1.1.88-1.935 2.067-1.451 3.606 0 .132.308.923.308.572 0-1.1.792-1.847 1.1-2.814.22-.616.264-1.407.879-1.671a12.064 12.064 0 0 1 1.5-.44c.088 0 .132.044 0 .176a2.51 2.51 0 0 0-.308.176 3.257 3.257 0 0 0-1.407 1.759 2.337 2.337 0 0 0-.132 1.451c.044.176.176.792.264.66a3.5 3.5 0 0 0 .132-.66c.264-.616.836-1.143 1.1-1.715a5.183 5.183 0 0 0 .352-.7 1.7 1.7 0 0 1 1.539-1.275c.352-.044.748-.352 1.011-.132.088.088-.088.088-.22.088a3.263 3.263 0 0 0-.528.308 2.648 2.648 0 0 0-1.1 1.1 3.065 3.065 0 0 0-.44 1.671c0 .22.132.835.22.748.22-.264.22-.7.44-1.011.7-.879 1.319-1.759 1.935-2.638.264-.4 1.011-.4 1.671-.352.22 0 .44.044.572.044a4.931 4.931 0 0 0-.572.22 3.131 3.131 0 0 0-2.111 2.2c-.044.176-.22 1.187 0 1.319.132.088.088-.264.132-.352a3.935 3.935 0 0 1 .66-.835c.484-.484.879-.923 1.319-1.407.22-.264.484-.616.748-.879.352-.352 1.1-.264 1.759-.132.132 0 .352.044.44.044-.132.044-.308.088-.44.132a3.5 3.5 0 0 0-1.935 1.188 2.916 2.916 0 0 0-.572 1.363v.572c0 .132.044.176.132 0 .308-.7 1.011-1.011 1.539-1.451.264-.22.528-.572.836-.879.4-.44.879-.88 1.363-.792.132 0 .22.044.352.044a12.6 12.6 0 0 1 1.231.308 5.547 5.547 0 0 0-1.231.176 2.816 2.816 0 0 0-1.363.835 3.35 3.35 0 0 0-.352.484 2.092 2.092 0 0 0-.352.791c-.088.22-.22.968.044.572a2.2 2.2 0 0 1 .308-.352c.44-.44 1.1-.66 1.627-1.1.044 0 .044 0 .088-.044.572-.484 1.319-1.363 1.979-1.187.528.132 1.011.352 1.539.528a3.117 3.117 0 0 0-3.166 1.495 2.486 2.486 0 0 0-.352.7c-.088.22-.176.484-.088.528.044.044.044.044.088-.044.044 0 .088-.176.132-.22.132-.132.264-.22.4-.352.528-.308 1.1-.528 1.627-.835.528-.264 1.407-1.143 1.935-1.1a6.348 6.348 0 0 1 1.759.792 3.38 3.38 0 0 0-3.43 1.055c-.132.176-.7 1.011-.528 1.231.044.088.132-.132.22-.22a1.58 1.58 0 0 1 .44-.308c.484-.264 1.143-.4 1.671-.616.572-.264 1.451-.967 2.067-.923a5.619 5.619 0 0 1 1.671.923 3.45 3.45 0 0 0-3.474.792c-.132.132-.748.968-.66 1.143.044.088.176-.132.264-.176.132-.088.308-.22.44-.308.572-.22 1.231-.22 1.759-.44a14.342 14.342 0 0 1 2.067-.7c.44-.044 1.319.923 1.671 1.187-1.539-.528-3.43-.528-4.265 1.1a11.589 11.589 0 0 0 1.979-.264c1.231-.132 2.243-.879 3.21-.044a8.325 8.325 0 0 0 .923.836 3.533 3.533 0 0 0-3.606-.044c-.264.176-1.1 1.056-.7.88a4.822 4.822 0 0 1 2.111-.22c1.1-.088 2.2-.615 2.946.22.264.308.572.66.836.968a3.593 3.593 0 0 0-3.518-.4c-.264.176-1.187.967-.748.835a7.44 7.44 0 0 1 2.419 0c1.935.044 2.331-.132 3.342 1.627-.967-.748-2.2-1.451-3.518-.879-.176.044-1.1.528-1.1.748 0 .088.22-.088.308-.088a2.115 2.115 0 0 1 .528 0 8.18 8.18 0 0 1 1.8.352c.66.088 1.891-.088 2.287.44a7.4 7.4 0 0 1 .879 1.5 3.372 3.372 0 0 0-3.386-1.187c-.22.088-1.1.4-1.143.66-.044.088.176-.044.308-.044a1.082 1.082 0 0 1 .528.044 11.642 11.642 0 0 1 1.759.528c.572.132 1.847.132 2.2.616a6.33 6.33 0 0 1 .66 1.583c-.879-.88-1.671-1.671-3.122-1.407-.22 0-1.187.22-1.231.484 0 .088.22 0 .308 0 .176 0 .352.044.528.044.616.176 1.1.572 1.671.748.572.22 1.759.264 2.067.791a5.84 5.84 0 0 1 .528 1.759c-.967-1.539-2.419-2.331-4.265-1.539a6.059 6.059 0 0 1 2.419 1.1c.528.308 1.715.528 2.023 1.011a5.959 5.959 0 0 1 .308 1.8 3.178 3.178 0 0 0-4.09-1.891 5.992 5.992 0 0 1 2.287 1.319c.484.308 1.627.66 1.891 1.143a5.938 5.938 0 0 1 .132 1.979c-.616-1.715-1.847-2.858-3.87-2.463.923.308 1.363.968 2.155 1.539.484.44 1.451.835 1.759 1.407.22.352-.088 1.451-.088 1.891a3.2 3.2 0 0 0-3.606-2.726 6.8 6.8 0 0 1 1.979 1.759 17.13 17.13 0 0 1 1.583 1.495c.088.132-.044.308-.088.44-.044.528-.132 1.011-.22 1.539a3.172 3.172 0 0 0-3.21-3.21c1.011.616 1.451 1.8 2.331 2.726.44.44.792.7.7 1.319-.044.484-.264 1.011-.352 1.539-.22-1.935-.967-3.21-2.99-3.474 1.143.88 1.759 2.374 2.55 3.518.44.7-.132 1.583-.44 2.331.132-1.935-.572-3.474-2.507-3.87 1.055.923 1.5 2.594 2.111 3.782.4.747-.264 1.539-.66 2.2.264-1.891-.308-3.386-2.111-4a16.049 16.049 0 0 1 1.671 4c.264.747-.44 1.451-.923 2.067.484-1.847.176-3.342-1.583-4.265a7.324 7.324 0 0 1 .7 2.594c.132.616.748 1.671.44 2.243a4.98 4.98 0 0 1-1.055 1.319c.616-1.759.484-3.254-1.187-4.265.616 1.055.616 2.946.792 4.221.088.792-.748 1.275-1.275 1.759.66-1.627.792-3.166-.792-4.354.4 1.143.22 2.858.352 4.134.044.967-.879 1.319-1.539 1.847 1.011-1.451 1.231-3.21-.176-4.529a6.705 6.705 0 0 1-.176 2.638 7.268 7.268 0 0 1-.088 2.2c-.264.44-1.187.748-1.627 1.011 1.143-1.407 1.5-2.99.308-4.485a6.323 6.323 0 0 1-.44 2.594 18.156 18.156 0 0 1-.308 2.155c-.044.132-.22.088-.352.176-.484.22-.967.44-1.407.66 1.275-1.275 1.847-2.814.7-4.441.132 1.451-.7 2.9-1.055 4.222-.22.879-1.319.747-2.067 1.143 1.539-1.055 2.287-2.594 1.363-4.4 0 1.055-.66 1.715-1.011 2.594-.176.484-.352.967-.572 1.451-.308.748-1.319.792-2.067.924 1.5-.968 2.375-2.287 1.715-4.178-.22 1.275-1.275 2.551-1.891 3.65-.044.088-.044.132-.088.22-.308.528-.967.572-1.627.616-.22 0-.4.044-.528.044.176-.088.308-.176.528-.264a3.149 3.149 0 0 0 1.539-3.738 9.625 9.625 0 0 1-1.539 2.463 2.824 2.824 0 0 0-.44.572c-.22.44-.4.88-.879.967a10.759 10.759 0 0 1-1.187.088 2.148 2.148 0 0 1-.528-.044 2.692 2.692 0 0 0 .528-.22 3.063 3.063 0 0 0 2.067-3.474 8.233 8.233 0 0 1-1.715 2.023c-.132.132-.22.308-.352.44-.66.792-.836 1.275-2.331 1.143-.22 0-.4-.088-.616-.088a3.188 3.188 0 0 0 2.858-3.43c-.352.791-1.011 1.1-1.671 1.671-.572.572-1.319 1.759-2.155 1.627-.22-.044-.44-.088-.616-.132a5.135 5.135 0 0 1-.879-.22 6.057 6.057 0 0 0 .879-.132 3.026 3.026 0 0 0 2.463-2.9 6.662 6.662 0 0 1-2.111 1.583 2.505 2.505 0 0 1-.352.308c-.484.44-1.055 1.056-1.5 1.011a5.367 5.367 0 0 1-1.671-.572 3.311 3.311 0 0 0 3.166-1.627 3.62 3.62 0 0 0 .308-1.1c-.088.132-.22.22-.308.352-.836.7-1.8.967-2.682 1.627-.308.22-.792.572-1.143.528a3.724 3.724 0 0 1-1.231-.528.465.465 0 0 1-.22-.088c-.4-.176-.176-.088.044-.088a3.182 3.182 0 0 0 3.65-2.33c-.879.88-2.2 1.011-3.254 1.539a3.183 3.183 0 0 1-1.187.528 3.839 3.839 0 0 1-1.055-.66c-.132 0-.176-.088-.264-.088-.352-.22-.264-.22-.088-.132a3.2 3.2 0 0 0 3.87-1.935c-1.011.7-2.331.748-3.386 1.187a2.733 2.733 0 0 1-1.143.4c-.308-.044-.748-.528-1.055-.747-.088-.088-.176-.132-.264-.22-.528-.4-.22-.22.044-.088a3.136 3.136 0 0 0 4.046-1.539c-.836.572-1.759.44-2.726.66a15.738 15.738 0 0 0-1.539.4c-.66.132-2.463-1.583-1.5-1.055a3.141 3.141 0 0 0 4-1.143c-1.1.484-2.9.4-4.134.528-.484.088-.528.088-.879-.22a10.5 10.5 0 0 1-.967-1.011c-.088-.132-.132-.22 0-.132a3.181 3.181 0 0 0 4.4-.572 14.641 14.641 0 0 1-4.178.132c-.836.044-1.407-.836-1.715-1.539-.088-.176.044.044.132.044a3.16 3.16 0 0 0 4.4.044 14.271 14.271 0 0 1-3.562-.4 1.979 1.979 0 0 1-1.363-.308c-.044-.088-1.319-1.979-.616-1.319a3.186 3.186 0 0 0 4.265.352c-1.231.176-2.331-.528-3.518-.748-.44-.044-1.011-.088-1.231-.44-.132-.132-.967-1.979-.572-1.407a3.227 3.227 0 0 0 4.265.792c-1.319 0-2.243-.792-3.43-1.1-.4-.088-1.011-.176-1.187-.484-.176-.22-.967-2.419-.352-1.539a3.14 3.14 0 0 0 4.09 1.319c-1.275-.22-2.155-1.011-3.254-1.5-.352-.132-1.011-.352-1.187-.66a6.579 6.579 0 0 1-.264-1.275v-.308c-.088-.44 0-.176.044 0a3.216 3.216 0 0 0 4 1.715c-1.187-.308-2.067-1.275-3.122-1.8-.308-.132-.923-.4-1.055-.7a4.343 4.343 0 0 1-.132-1.319v-.308c-.044-.528.044-.22.132.044a3.085 3.085 0 0 0 3.738 2.067c-1.187-.4-1.935-1.407-2.9-2.111a3.665 3.665 0 0 1-1.011-.835c-.175-.318 0-.89.044-1.241zm-.176-.4c-.044.44.044 1.319-.22 1.671-.528.748-1.231 1.407-1.715 2.155-.572.66-.792 1.5-1.539 1.979-.44.308.967.044 1.275-.132a4.683 4.683 0 0 0 1.671-1.539 1.993 1.993 0 0 0 .352-.968c.044-.132.044-.264.088-.44 0-.044 0-.264.044-.22.132.088.044 1.187.044 1.407.088.22-.308.748-.484.968a13.465 13.465 0 0 0-1.5 2.506 3.185 3.185 0 0 1-.528 1.011c-.132.088-.528.352-.572.484s.22-.044.352-.044a3.549 3.549 0 0 0 2.507-1.891 4.237 4.237 0 0 0 .44-1.319v-.4c0-.132-.088-.4-.044-.308.044.308.4 1.187.264 1.5A5.4 5.4 0 0 1 4 33.156a14.228 14.228 0 0 0-1.187 2.638 2.408 2.408 0 0 1-.748 1.231c-.176.22.836-.176 1.1-.308a3.587 3.587 0 0 0 1.671-2.858c0-.132-.132-.7-.044-.835s.088.308.132.484a3.3 3.3 0 0 0 .22.7c.176.528-.352 1.319-.572 1.8a17.3 17.3 0 0 1-1.363 3.65 4.86 4.86 0 0 0 1.055-.44 3.763 3.763 0 0 0 1.5-2.814c0-.308-.22-.7-.132-.968 0-.132.044.176.088.308a2.693 2.693 0 0 0 .22.528c.264.528.044 1.011-.088 1.627-.308 1.055-.308 2.55-.7 3.606-.088.264-.616.88-.22.7a3.623 3.623 0 0 0 1.8-4.178c-.308-.923.616.792.572 1.275-.132.879-.352 1.715-.44 2.638a5.559 5.559 0 0 1-.264 2.419c-.264.528.264 0 .4-.132a3.5 3.5 0 0 0 1.275-2.506 3.1 3.1 0 0 0-.176-1.319c-.044-.22-.352-.748-.176-.528a6.009 6.009 0 0 1 .792 1.055c.132.132 0 .616 0 .792-.044 1.231.088 2.55 0 3.738a2.848 2.848 0 0 1-.088.879c-.044.088-.22.308-.132.264.967-.088 1.451-2.067 1.5-2.77s-.616-2.067-.4-1.847c1.231 1.143.66 3.122 1.143 4.617a2.857 2.857 0 0 1 .176 1.363c0 .176-.176.747-.044.572.088-.132.22-.22.308-.352a3.766 3.766 0 0 0 .308-4 .957.957 0 0 0-.22-.352c-.088-.088-.308-.352-.22-.264a2.4 2.4 0 0 1 1.187 1.539c.22.88.308 1.8.528 2.594a7.613 7.613 0 0 1 .484 1.627c0 .176-.132.792-.044.88.044.132.132-.22.22-.308a1.038 1.038 0 0 0 .264-.4 3.857 3.857 0 0 0 .22-2.726 2.808 2.808 0 0 0-.7-1.275c-.132-.132-.484-.4-.308-.352.748.044 1.363 1.187 1.539 1.8.22.748.4 1.539.66 2.287a4.758 4.758 0 0 1 .616 1.979c0 .7.616-.792.66-1.231a3.845 3.845 0 0 0-.44-2.331c-.176-.308-1.187-1.187-.748-.967a2.218 2.218 0 0 1 1.319 1.187c.528 1.231 1.275 2.418 1.759 3.65a2.212 2.212 0 0 1 .22.572c0 .132 0 .572.088.528 1.055-1.011.088-3.386-.528-4.134a2.691 2.691 0 0 0-.748-.66.043.043 0 0 1-.044-.044c.66.308 1.187.44 1.583 1.1.616 1.055 1.143 2.023 1.847 3.034a3.186 3.186 0 0 1 .528 1.011c.044.132 0 .484.088.44a2.669 2.669 0 0 0 .308-1.671 3.851 3.851 0 0 0-1.187-2.419 7.014 7.014 0 0 1-.967-.572c0-.044.132 0 .176.044a1.4 1.4 0 0 1 .4.132c.7.264.879.264 1.319.879a18.441 18.441 0 0 0 1.143 1.451c.44.528.879 1.055 1.275 1.583.176.264.528 1.011.528.923a3.69 3.69 0 0 0-1.759-4.046h-.044a1.355 1.355 0 0 0-.44-.22c-.044-.044-.132-.044-.22-.088.264.044.44.088.66.132 1.143.308 1.451 1.1 2.463 2.067A10.047 10.047 0 0 1 27 53.868c0 .044.044.088.088.132A3.046 3.046 0 0 0 27 52.329a3.971 3.971 0 0 0-1.1-1.671 2.761 2.761 0 0 0-.792-.528c-.308-.132-1.011-.352-.66-.264a3.156 3.156 0 0 1 1.451.22A5.886 5.886 0 0 1 27 51.1a6.8 6.8 0 0 0 .572.528c.572.484 1.231.791 1.759 1.319.088 0 .088.044.176.132.22.308.572.792.572.616a2.849 2.849 0 0 0-.088-.88 3.327 3.327 0 0 0-.484-1.143 3.81 3.81 0 0 0-2.331-1.583c-.044-.044-.132-.044-.176-.088-.176 0-.132-.044 0-.044a3.544 3.544 0 0 1 1.539.22c.308.22.66.484.967.7a12.457 12.457 0 0 0 1.231.879 4.635 4.635 0 0 0 .484.308 4.382 4.382 0 0 1 1.5 1.1c.352.484.088-.264.088-.528a2.778 2.778 0 0 0-1.583-2.111 5.036 5.036 0 0 0-1.715-.616c-.088 0-.088-.044-.176-.044h.176a3.548 3.548 0 0 1 1.715.22c.923.352 1.671.968 2.77 1.363a4.044 4.044 0 0 1 1.231.616c.088.088.484.484.528.44.044-.088-.088-.352-.088-.44a3.779 3.779 0 0 0-3.958-2.551 2.74 2.74 0 0 1 1.759-.22 18.9 18.9 0 0 0 3.078 1.275 3.473 3.473 0 0 1 1.275.484c.132.088.528.484.572.4a1.676 1.676 0 0 0-.132-.44c-.616-1.671-2.375-2.287-4.134-2.155a2.683 2.683 0 0 1 1.715-.4 18.875 18.875 0 0 0 3.166.967 3.9 3.9 0 0 1 1.275.352 5.849 5.849 0 0 0 .616.352.781.781 0 0 0-.176-.44c-.792-1.627-2.55-2.067-4.309-1.759a7.217 7.217 0 0 1 1.319-.616 9.687 9.687 0 0 1 2.638.528 14.867 14.867 0 0 1 2.55.352c.572.264.572.176.176-.264a3.671 3.671 0 0 0-4.573-1.055c.308-.176 1.011-.792 1.363-.792 1.231 0 2.463.44 3.782.22.7-.088 2.155.484 1.715-.044-1.275-1.5-3.034-1.5-4.749-.792.352-.264.7-.484 1.055-.792.176-.132.176-.308.4-.308.967-.132 2.067.044 3.034-.132a6.045 6.045 0 0 1 2.507-.132c.4.132.176 0 0-.22-1.319-1.5-3.65-1.011-5.057 0 .308-.308.616-.528.879-.836.088-.132.308-.44.308-.264 0-.264.484-.22.7-.264.484-.044.923-.088 1.451-.132a22.552 22.552 0 0 1 2.9-.572c.22-.044.792.044.792 0-.176-.528-1.451-.88-1.935-.967a4.215 4.215 0 0 0-3.254 1.187 7.451 7.451 0 0 1 .967-1.275 8.3 8.3 0 0 1 2.111-.572c.967-.22 1.847-.748 2.858-.923a1.226 1.226 0 0 1 .44-.044c.088 0 .352.088.308 0-.22-.484-1.539-.748-2.067-.7a4.272 4.272 0 0 0-3.3 1.8 14.607 14.607 0 0 1 1.011-1.627c.616-.572 1.935-.66 2.726-.967.967-.44 1.627-1.1 2.814-1.1-1.847-1.1-3.826-.308-5.057 1.319a7.4 7.4 0 0 1 .7-1.451c.528-.66 1.847-.835 2.594-1.275a6.418 6.418 0 0 1 2.638-1.275 3.7 3.7 0 0 0-4.881 1.671 7.72 7.72 0 0 1 .528-1.407 5.532 5.532 0 0 1 1.583-1.055c1.143-.66 2.023-1.847 3.386-2.155a3.745 3.745 0 0 0-4.705 2.375 7.459 7.459 0 0 1 .44-1.627c.4-.7 1.583-1.143 2.2-1.759a6.812 6.812 0 0 1 2.287-1.8 3.578 3.578 0 0 0-3.914 1.627 7.585 7.585 0 0 0-.44 1.055c.044-.484.132-1.011.22-1.495.088-.616 1.451-1.451 1.847-1.891.792-.88 1.231-1.759 2.287-2.331a3.7 3.7 0 0 0-4.09 3.386c.044-.528.088-1.011.088-1.583 0-.7 1.187-1.539 1.627-2.111a7.951 7.951 0 0 1 2.023-2.507 3.661 3.661 0 0 0-3.518 2.463c-.132.352-.088.792-.22 1.143 0-.484-.22-1.363.044-1.759.4-.7.879-1.319 1.275-1.979.572-.967.792-1.979 1.715-2.77-2.155.264-3.254 1.979-3.254 4.178a5.632 5.632 0 0 1-.176-1.891c.264-.7.7-1.363 1.055-2.111.528-1.011.572-2.067 1.5-2.858a3.692 3.692 0 0 0-2.946 3.122 9.564 9.564 0 0 0 .044 1.143c-.132-.44-.264-.923-.4-1.363a7.66 7.66 0 0 1 .836-2.506c.4-1.1.4-2.155 1.1-3.122a3.791 3.791 0 0 0-2.243 4.793c-.22-.616-.748-1.319-.572-1.979.352-1.5.528-3.87 1.319-5.233a3.665 3.665 0 0 0-1.935 4.529c.22.66-.176-.264-.308-.484a2.433 2.433 0 0 1-.176-1.847c.264-1.407.088-3.254.66-4.485a3.851 3.851 0 0 0-1.407 4.837c-.264-.352-.528-.748-.792-1.1h.044c-.22-.132-.088-1.1-.088-1.407.088-1.5-.352-3.166.132-4.485a3.773 3.773 0 0 0-.7 5.145 6.8 6.8 0 0 1-1.055-1.187c-.352-.7-.132-2.023-.22-2.858a8.207 8.207 0 0 1-.264-2.946 3.664 3.664 0 0 0-.132 5.145 5.512 5.512 0 0 1-1.187-1.055c-.44-.66-.308-1.979-.528-2.77a7.1 7.1 0 0 1-.528-2.9 3.659 3.659 0 0 0 .308 5.1c-.264-.22-1.143-.66-1.231-.923-.308-.748-.44-1.627-.748-2.419a7.274 7.274 0 0 1-1.011-3.122c-1.275 1.715-.528 3.914 1.055 5.145-.4-.264-1.319-.572-1.539-1.011-.352-.7-.572-1.495-.923-2.2a10.071 10.071 0 0 1-1.275-2.99 3.745 3.745 0 0 0 1.407 4.925c-.44-.176-.879-.4-1.319-.572-.4 0-1.1-2.023-1.275-2.243-.572-1.011-1.363-1.627-1.583-2.814-.836 1.847.22 3.65 1.759 4.661-.572-.22-1.187-.264-1.583-.748a24.084 24.084 0 0 0-1.539-2.155c-.044-.044-.088-.132-.176-.176A5.271 5.271 0 0 1 29.639.175a1.764 1.764 0 0 0-.132.66 2.131 2.131 0 0 0 0 .748 3.884 3.884 0 0 0 1.715 2.594c.264.132.528.308.836.44a2.837 2.837 0 0 0-.836-.176 3.442 3.442 0 0 0-.616-.088c-.264 0-.879-.923-1.1-1.231-.044-.044-.088-.088-.088-.132-.748-.923-1.891-1.539-2.419-2.594a3.192 3.192 0 0 1-.22-.4 3.416 3.416 0 0 0 .22 2.023 4.322 4.322 0 0 0 2.419 2.155A2.87 2.87 0 0 1 27 3.122c-.22-.22-.484-.484-.748-.791-.879-.748-1.847-1.056-2.419-2.111A3.689 3.689 0 0 0 27 4.046a5.611 5.611 0 0 0-.836.044h-.528c-.352-.044-.792-.528-1.011-.7-.7-.484-1.451-.923-2.155-1.407a5.907 5.907 0 0 1-1.5-1.275 3.931 3.931 0 0 0 1.5 2.726 4.654 4.654 0 0 0 2.023.792 7.269 7.269 0 0 1-1.319.176 2.3 2.3 0 0 1-.7-.264c-.616-.308-1.275-.88-1.8-1.143a8.683 8.683 0 0 1-2.55-1.451c.22 2.023 1.979 2.99 4 3.034-.484.132-.923.264-1.363.352-.528.132-1.847-.836-2.331-1.056-1.055-.484-2.067-.484-2.99-1.319a3.866 3.866 0 0 0 2.814 2.682c.4.132.792-.044 1.231.044.484 0-.4.176-.572.264a1.9 1.9 0 0 1-1.539-.132c-1.363-.4-3.342-.572-4.573-1.363a3.767 3.767 0 0 0 3.078 2.287c.484.044.879-.176 1.363-.176.528 0-.44.264-.616.352a1.765 1.765 0 0 1-1.5.088c-1.363-.264-3.43-.264-4.661-.923a3.338 3.338 0 0 0 2.463 1.847 3.245 3.245 0 0 0 1.715-.044 1.051 1.051 0 0 1 .4-.132c.044 0 .22-.132.176-.044-.044.176-.264.176-.44.264-1.1.66-1.891.352-3.3.264-1.187-.088-2.2.176-3.21-.308a3.507 3.507 0 0 0 2.682 1.627c.748.088 2.463-.66 1.891-.22-.308.22-.616.616-1.011.66-.748.088-1.583 0-2.375.088a9.052 9.052 0 0 1-3.254.088 3.761 3.761 0 0 0 4.793.7 1.4 1.4 0 0 1 .264-.22c.176-.044-.132.176-.176.176l-.66.66c-.4.44-1.363.4-1.935.44-1.407.176-2.638.836-4 .528a3.593 3.593 0 0 0 4.353.572c.308-.22.836-.66.572-.4-.132.132-.792 1.143-.792.967 0 .132-1.011.264-1.187.308-1.451.308-2.814 1.143-4.4 1.011a3.483 3.483 0 0 0 3.034.7 2.994 2.994 0 0 0 1.451-.7c.088-.088.308-.264.4-.352-.528.572-.484 1.011-1.231 1.319a18.663 18.663 0 0 0-2.594 1.011 4.6 4.6 0 0 1-2.287.792 3.732 3.732 0 0 0 3.826-.044c.352-.22.572-.616.923-.88.4-.308-.132.4-.22.616-.264.528-.572.66-1.143.967-1.319.616-2.726 1.8-4.265 2.023a3.6 3.6 0 0 0 3.738-.4c.4-.264.528-.66.879-.968.308-.264-.132.44-.176.66-.22.616-.528.748-1.055 1.1-1.231.748-2.594 2.155-4.046 2.594a3.857 3.857 0 0 0 3.738-.88 8.824 8.824 0 0 0 .748-1.187c.352-.4-.044.484-.088.7a1.7 1.7 0 0 1-.923 1.187c-1.143.923-2.375 2.418-3.738 2.946a3.564 3.564 0 0 0 3.606-1.187 7.257 7.257 0 0 0 .616-1.143c.308-.44 0 .44 0 .66a2.162 2.162 0 0 1-.792 1.319c-1.1 1.1-2.067 2.638-3.386 3.386a3.759 3.759 0 0 0 3.738-2.111 2.519 2.519 0 0 0 .176-.616c.044-.176.132-.66.132-.44"/><g data-name="Group 1"><path data-name="Rectangle 8" d="M17 20h20v2H17z"/><path data-name="Rectangle 9" d="M17 26h20v2H17z"/><path data-name="Rectangle 10" d="M17 32h20v2H17z"/></g></g></symbol></svg>